PathFileType	4	(X/Y/Z)	Patient4_TMGait_0pt5_01_left_12.trc.trc
DataRate	CameraRate	NumFrames	NumMarkers	Units	OrigDataRate	OrigDataStartFrame	OrigNumFrames
76.502732240437	76.502732240437	5	33	mm	76.502732240437	36	       141
Frame#	Time	L.ASIS			Sacral			L.Shoulder			Chest			R.Shoulder			Neck			R.ASIS			R.Thigh.Superior			R.Thigh.Lateral			R.Thigh.Inferior			R.Patella			L.Thigh.Superior			L.Thigh.Lateral			L.Thigh.Inferior			L.Patella			L.Shank.Superior			L.Shank.Lateral			L.Shank.Inferior			R.Shank.Superior			R.Shank.Lateral			R.Shank.Inferior			R.Heel			R.Midfoot.Superior			R.Midfoot.Lateral			R.Toe			L.Heel			L.Midfoot.Lateral			L.Midfoot.Superior			L.Toe			L.Elbow			L.Wrist			R.Elbow			R.Wrist			
		X1	Y1	Z1	X2	Y2	Z2	X3	Y3	Z3	X4	Y4	Z4	X5	Y5	Z5	X6	Y6	Z6	X7	Y7	Z7	X8	Y8	Z8	X9	Y9	Z9	X10	Y10	Z10	X11	Y11	Z11	X12	Y12	Z12	X13	Y13	Z13	X14	Y14	Z14	X15	Y15	Z15	X16	Y16	Z16	X17	Y17	Z17	X18	Y18	Z18	X19	Y19	Z19	X20	Y20	Z20	X21	Y21	Z21	X22	Y22	Z22	X23	Y23	Z23	X24	Y24	Z24	X25	Y25	Z25	X26	Y26	Z26	X27	Y27	Z27	X28	Y28	Z28	X29	Y29	Z29	X30	Y30	Z30	X31	Y31	Z31	X32	Y32	Z32	X33	Y33	Z33	

36	16.487500000000	798.244989716178	948.481822706739	298.588522238415	592.980516131400	1005.929959300675	465.485738870805	754.107242218968	1418.440302990755	253.414891299124	868.702432764916	1355.995216180318	409.149567908259	801.104443251811	1442.091752133619	585.027709346660	769.145817405717	1489.656860052421	399.730928889065	821.382674652649	939.325346256011	572.926878493539	846.543956083369	728.932055558124	549.536869408432	758.828220526064	625.226212876427	613.946304193631	829.732887992175	562.850598759677	535.124000380918	817.283045002637	459.690788965544	549.082583953922	870.167888850351	761.339153672123	330.845403063238	799.866661496376	635.838377786849	272.157972434821	897.798326363528	571.962028134306	333.161390923003	908.809452868047	500.773123755485	341.364232052924	888.431672379787	425.700739743398	334.374217038611	808.431150582576	303.142797222349	287.355962075954	873.751838260265	198.077499245210	356.697133651430	753.173769744493	387.238739052017	556.783272037934	646.902454899302	322.192894124760	621.415692273154	651.345074032905	215.349643641712	566.563083524643	465.906055467566	96.823069342666	542.912769051646	644.223519577634	109.092490013748	583.769672062102	542.333929864771	71.750986016121	619.746656606837	744.302939859235	34.210148641162	619.601464065936	757.409057582203	37.322978020802	401.467145626500	831.411393261481	34.591563657599	320.014751961845	913.393387415827	97.723662315130	345.369804919878	1042.136458250354	49.205299910265	319.100858351214	678.161891047569	1060.638807319954	171.603421313236	688.616860347746	801.895818138643	183.209769967264	861.974137790942	1103.881583835861	706.894193636057	1107.526278547711	1075.946623926142	656.283007449006	
37	16.500571428571	799.051256237352	949.778589045764	296.865335647709	592.882285347721	1006.919074005774	462.608451845388	755.170907749960	1419.224196284625	250.490716684398	868.779705112234	1357.222699403402	407.115220879870	800.049279187003	1443.765144764604	582.315275539632	769.163766751137	1490.765131557280	396.690729175115	820.922359337120	940.761669114976	571.230030533104	850.771718831645	731.843047436853	547.727268910653	765.620326597614	626.254459560813	612.129128957341	838.840730062899	564.928672734575	533.956653531891	827.637451368124	460.007379825792	549.147477533713	869.255067345333	760.831209377485	328.873105256356	797.806884318101	636.083517311139	270.880744841963	894.658983874452	571.321176344722	332.515877036670	904.991436020233	500.299498440317	341.035656809866	884.269073080877	425.378562263266	333.979618472874	803.834639153823	303.206699407072	286.934088747085	868.124430209665	197.966901297848	356.750767762024	760.920960993719	388.701669828990	556.058985133630	651.924930539322	327.415278179277	619.857992005692	653.568370909837	220.159719845419	565.764480262305	464.508785843854	108.770780907425	541.064843878404	643.031149425919	113.008293705449	583.386036861979	539.171353817599	80.501285150508	618.478841150574	738.999307660113	33.770727462678	619.915393566386	751.088983734854	37.301470206569	401.421597077028	825.086636097079	34.731911357130	320.008476176818	906.949886113916	97.884021245256	345.444518548005	1035.699513848765	49.667149637070	319.085878462667	685.474392495217	1060.361059609923	166.762620266031	702.102372840082	801.869688917724	177.401224944651	852.831117464476	1104.014183512783	704.797352953220	1097.145267956547	1062.733850827653	654.564816008530	
38	16.513642857143	799.681199023785	951.059681129949	295.128782945088	592.651000435387	1007.793926959205	459.794465172384	756.111581211108	1420.079505427062	247.803010461014	868.698932005454	1358.455000664947	405.311501114239	798.731151234696	1445.259967192218	579.883736301439	769.010135321007	1491.848373374225	393.936391554586	820.443289392245	942.143185884728	569.487780392134	855.102684668893	734.945514201444	545.814827233606	772.717848924326	627.537621552892	610.411168802260	848.091518601795	567.331567099979	532.775161247018	838.211331317705	460.795524367867	549.167639788457	868.105610064399	760.203460500965	327.037322582683	795.548488177683	636.230942558567	269.684644409471	891.301308361113	570.601080150514	332.006030241754	900.877183379586	499.730021209797	340.826735752343	879.850829568272	425.007629966325	333.675278025583	799.056183715330	303.187128656252	286.574350667564	862.362967997464	197.809077983909	356.860630547684	769.082892584348	390.494934728387	555.385569441337	657.511107352643	333.004233475587	618.282226210003	656.348192970793	225.428486632050	564.936131325358	463.996403444692	121.320104251388	538.981309026936	642.338688940202	117.538615204047	582.995005979905	536.656924517751	89.984234357948	617.131342084320	734.027034042075	33.913548821192	620.447845337806	744.687146235737	37.301237952368	401.421143781925	818.658441018097	34.839640383743	320.029082076203	900.479452860121	97.939763916583	345.527180927560	1029.216593340869	49.855073775424	319.014957993853	692.815654157886	1060.356514688317	161.893101992653	716.288402526962	802.289773333687	171.519418531957	843.287086116734	1104.148005134794	702.886701969737	1085.621158418372	1048.613076434267	653.243867956401	
39	16.526714285714	800.148197649705	952.272722088633	293.355307389697	592.311102663320	1008.510989173776	457.057875595354	756.884752612568	1420.968932130623	245.368133108732	868.455547312199	1359.654944591498	403.731358788463	797.170311117526	1446.522633225118	577.745794556312	768.672432932580	1492.871193725147	391.487337738608	819.979654487135	943.433773670296	567.681923155916	859.440823811433	738.172396186098	543.784422219908	779.990636611892	629.061437963961	608.788517112990	857.296449862452	570.028299111345	531.544180024469	848.828024979131	462.038627656727	549.086729863172	866.825003901582	759.501977926327	325.319731752624	793.204245401113	636.288939002504	268.543972024967	887.859099250839	569.823146384250	331.566076170832	896.618175230395	499.079314597283	340.681786480535	875.317322993977	424.580741046585	333.430989670503	794.209142737309	303.090324925575	286.233772502923	856.538038032426	197.588970954206	357.004840356112	777.504152235072	392.585540678572	554.749456316142	663.543334547287	338.862872612213	616.712135965742	659.620078893640	231.057096361850	564.099038836546	464.373336575734	134.174716841926	536.739345215958	642.144235267109	122.631567824077	582.619257966111	534.855522714718	99.997319438378	615.751825821450	729.510090106974	34.752509799362	621.203355704600	738.203528616690	37.320317330328	401.446691873890	812.137093744101	34.911120687594	320.063956059375	893.998857558913	97.881767912855	345.621299992430	1022.703704359580	49.744869229966	318.912677360034	700.150396619189	1060.589292305708	157.039474493731	731.073857226095	803.166547544449	165.591494544120	833.463604743573	1104.230887135619	701.159989374484	1072.890940580913	1033.638310494453	652.382010058046	
40	16.539785714286	800.466916118003	953.383422259508	291.529768041966	591.884029798658	1009.053915531733	454.408042160437	757.455742394541	1421.870286012516	243.194895940516	868.051360536682	1360.798252810861	402.360962163645	795.401785672403	1447.523911413923	575.902994319306	768.149479076008	1493.814282192667	389.354430080056	819.550180359799	944.617874175022	565.804668150926	863.690903462521	741.468077132162	541.631980478738	787.312572395959	630.808652886262	607.252564007790	866.295179556295	572.988159298100	530.236499332966	859.341943236004	463.710121788375	548.861577128667	865.508304304296	758.772535769485	323.696296731296	790.862939186681	636.272940123226	267.436566337760	884.436502474238	569.008987787215	331.138242641394	892.341942316005	498.369267678307	340.553954623652	870.783657151600	424.101438127321	333.219315632279	789.383415195517	302.932994575103	285.879460268797	850.707952318973	197.306292494494	357.162541840917	786.052002961868	394.937423023830	554.135884872091	669.918984633124	344.885509226047	615.174716492570	663.334659485080	236.932940407458	563.276739570458	465.626662707862	147.030024807315	534.438231105809	642.468983355482	128.195127770928	582.277490481144	533.834547084732	110.303080636469	614.393245244960	725.598768255828	36.348681647979	622.150991533200	731.651024776758	37.354262318824	401.480968281798	805.545291707257	34.950403194532	320.103057475883	887.520666404370	97.724878204468	345.728347033461	1016.177254522122	49.368944962319	318.802992271745	707.455559229528	1061.034909003409	152.246839254950	746.357446164658	804.520881556500	159.651414881622	823.485334576791	1104.225782212226	699.602501278475	1058.881477472731	1017.880672823543	652.039451426398	
